{
	"asset":{
		"generator":"Khronos glTF Blender I/O v3.5.30",
		"version":"2.0"
	},
	"scene":0,
	"scenes":[
		{
			"name":"Scene",
			"nodes":[
				0,
				1,
				2,
				3,
				4,
				5
			]
		}
	],
	"nodes":[
		{
			"mesh":0,
			"name":"S_Tunnel"
		},
		{
			"mesh":1,
			"name":"S_Pipe"
		},
		{
			"mesh":2,
			"name":"S_Grate"
		},
		{
			"mesh":3,
			"name":"S_Load"
		},
		{
			"mesh":4,
			"name":"S_Door"
		},
		{
			"mesh":5,
			"name":"S_DoorLump"
		}
	],
	"materials":[
		{
			"doubleSided":true,
			"name":"ConcreteMaterial",
			"pbrMetallicRoughness":{
				"baseColorTexture":{
					"index":0
				},
				"metallicFactor":0,
				"roughnessFactor":0.5
			}
		},
		{
			"doubleSided":true,
			"name":"GrateMaterial",
			"pbrMetallicRoughness":{
				"baseColorTexture":{
					"index":1
				},
				"metallicFactor":0,
				"roughnessFactor":0.5
			}
		},
		{
			"doubleSided":true,
			"name":"DoorMaterial",
			"pbrMetallicRoughness":{
				"baseColorTexture":{
					"index":2
				},
				"metallicFactor":0,
				"roughnessFactor":0.5
			}
		},
		{
			"doubleSided":true,
			"name":"LumpMaterial",
			"pbrMetallicRoughness":{
				"baseColorFactor":[
					0.8000000715255737,
					0.004699753597378731,
					0.001813021837733686,
					1
				],
				"metallicFactor":0,
				"roughnessFactor":0.5
			}
		}
	],
	"meshes":[
		{
			"name":"\u5186\u67f1.004",
			"primitives":[
				{
					"attributes":{
						"POSITION":0,
						"TEXCOORD_0":1,
						"NORMAL":2
					},
					"indices":3,
					"material":0
				}
			]
		},
		{
			"name":"\u5186\u67f1.006",
			"primitives":[
				{
					"attributes":{
						"POSITION":4,
						"TEXCOORD_0":5,
						"NORMAL":6
					},
					"indices":7,
					"material":0
				}
			]
		},
		{
			"name":"\u5186\u67f1.009",
			"primitives":[
				{
					"attributes":{
						"POSITION":8,
						"TEXCOORD_0":9,
						"NORMAL":10
					},
					"indices":11,
					"material":1
				}
			]
		},
		{
			"name":"\u7acb\u65b9\u4f53.011",
			"primitives":[
				{
					"attributes":{
						"POSITION":12,
						"TEXCOORD_0":13,
						"NORMAL":14
					},
					"indices":15,
					"material":0
				}
			]
		},
		{
			"name":"\u7acb\u65b9\u4f53.013",
			"primitives":[
				{
					"attributes":{
						"POSITION":16,
						"TEXCOORD_0":17,
						"NORMAL":18
					},
					"indices":19,
					"material":2
				}
			]
		},
		{
			"name":"\u7acb\u65b9\u4f53.001",
			"primitives":[
				{
					"attributes":{
						"POSITION":20,
						"TEXCOORD_0":21,
						"NORMAL":22
					},
					"indices":23,
					"material":3
				}
			]
		}
	],
	"textures":[
		{
			"sampler":0,
			"source":0
		},
		{
			"sampler":0,
			"source":1
		},
		{
			"sampler":0,
			"source":2
		}
	],
	"images":[
		{
			"mimeType":"image/png",
			"name":"Concrete",
			"uri":"Concrete.png"
		},
		{
			"mimeType":"image/png",
			"name":"Metal",
			"uri":"Metal.png"
		},
		{
			"mimeType":"image/png",
			"name":"DoorTex",
			"uri":"DoorTex.png"
		}
	],
	"accessors":[
		{
			"bufferView":0,
			"componentType":5126,
			"count":1273,
			"max":[
				12.32236385345459,
				7.649999618530273,
				124.99993896484375
			],
			"min":[
				-12.67763614654541,
				-9.34999942779541,
				-125
			],
			"type":"VEC3"
		},
		{
			"bufferView":1,
			"componentType":5126,
			"count":1273,
			"type":"VEC2"
		},
		{
			"bufferView":2,
			"componentType":5126,
			"count":1273,
			"type":"VEC3"
		},
		{
			"bufferView":3,
			"componentType":5123,
			"count":6294,
			"type":"SCALAR"
		},
		{
			"bufferView":4,
			"componentType":5126,
			"count":3360,
			"max":[
				25.245983123779297,
				5.774999141693115,
				123.625
			],
			"min":[
				5.24598503112793,
				-5.774999141693115,
				-109.875
			],
			"type":"VEC3"
		},
		{
			"bufferView":5,
			"componentType":5126,
			"count":3360,
			"type":"VEC2"
		},
		{
			"bufferView":6,
			"componentType":5126,
			"count":3360,
			"type":"VEC3"
		},
		{
			"bufferView":7,
			"componentType":5123,
			"count":14886,
			"type":"SCALAR"
		},
		{
			"bufferView":8,
			"componentType":5126,
			"count":3968,
			"max":[
				11.861391067504883,
				7.689913749694824,
				123.2784652709961
			],
			"min":[
				-11.8609619140625,
				-9.63813304901123,
				-95.35005187988281
			],
			"type":"VEC3"
		},
		{
			"bufferView":9,
			"componentType":5126,
			"count":3968,
			"type":"VEC2"
		},
		{
			"bufferView":10,
			"componentType":5126,
			"count":3968,
			"type":"VEC3"
		},
		{
			"bufferView":11,
			"componentType":5123,
			"count":12294,
			"type":"SCALAR"
		},
		{
			"bufferView":12,
			"componentType":5126,
			"count":826,
			"max":[
				12.41618824005127,
				0.09803926944732666,
				125
			],
			"min":[
				-2.17763614654541,
				-4.901960849761963,
				-125
			],
			"type":"VEC3"
		},
		{
			"bufferView":13,
			"componentType":5126,
			"count":826,
			"type":"VEC2"
		},
		{
			"bufferView":14,
			"componentType":5126,
			"count":826,
			"type":"VEC3"
		},
		{
			"bufferView":15,
			"componentType":5123,
			"count":1920,
			"type":"SCALAR"
		},
		{
			"bufferView":16,
			"componentType":5126,
			"count":668,
			"max":[
				10.974454879760742,
				2.7309494018554688,
				36.7132453918457
			],
			"min":[
				8.34395694732666,
				0,
				-35.54121398925781
			],
			"type":"VEC3"
		},
		{
			"bufferView":17,
			"componentType":5126,
			"count":668,
			"type":"VEC2"
		},
		{
			"bufferView":18,
			"componentType":5126,
			"count":668,
			"type":"VEC3"
		},
		{
			"bufferView":19,
			"componentType":5123,
			"count":1140,
			"type":"SCALAR"
		},
		{
			"bufferView":20,
			"componentType":5126,
			"count":136,
			"max":[
				8.482423782348633,
				2.5325443744659424,
				36.17514419555664
			],
			"min":[
				8.374455451965332,
				2.220505475997925,
				-35.00311279296875
			],
			"type":"VEC3"
		},
		{
			"bufferView":21,
			"componentType":5126,
			"count":136,
			"type":"VEC2"
		},
		{
			"bufferView":22,
			"componentType":5126,
			"count":136,
			"type":"VEC3"
		},
		{
			"bufferView":23,
			"componentType":5123,
			"count":204,
			"type":"SCALAR"
		}
	],
	"bufferViews":[
		{
			"buffer":0,
			"byteLength":15276,
			"byteOffset":0,
			"target":34962
		},
		{
			"buffer":0,
			"byteLength":10184,
			"byteOffset":15276,
			"target":34962
		},
		{
			"buffer":0,
			"byteLength":15276,
			"byteOffset":25460,
			"target":34962
		},
		{
			"buffer":0,
			"byteLength":12588,
			"byteOffset":40736,
			"target":34963
		},
		{
			"buffer":0,
			"byteLength":40320,
			"byteOffset":53324,
			"target":34962
		},
		{
			"buffer":0,
			"byteLength":26880,
			"byteOffset":93644,
			"target":34962
		},
		{
			"buffer":0,
			"byteLength":40320,
			"byteOffset":120524,
			"target":34962
		},
		{
			"buffer":0,
			"byteLength":29772,
			"byteOffset":160844,
			"target":34963
		},
		{
			"buffer":0,
			"byteLength":47616,
			"byteOffset":190616,
			"target":34962
		},
		{
			"buffer":0,
			"byteLength":31744,
			"byteOffset":238232,
			"target":34962
		},
		{
			"buffer":0,
			"byteLength":47616,
			"byteOffset":269976,
			"target":34962
		},
		{
			"buffer":0,
			"byteLength":24588,
			"byteOffset":317592,
			"target":34963
		},
		{
			"buffer":0,
			"byteLength":9912,
			"byteOffset":342180,
			"target":34962
		},
		{
			"buffer":0,
			"byteLength":6608,
			"byteOffset":352092,
			"target":34962
		},
		{
			"buffer":0,
			"byteLength":9912,
			"byteOffset":358700,
			"target":34962
		},
		{
			"buffer":0,
			"byteLength":3840,
			"byteOffset":368612,
			"target":34963
		},
		{
			"buffer":0,
			"byteLength":8016,
			"byteOffset":372452,
			"target":34962
		},
		{
			"buffer":0,
			"byteLength":5344,
			"byteOffset":380468,
			"target":34962
		},
		{
			"buffer":0,
			"byteLength":8016,
			"byteOffset":385812,
			"target":34962
		},
		{
			"buffer":0,
			"byteLength":2280,
			"byteOffset":393828,
			"target":34963
		},
		{
			"buffer":0,
			"byteLength":1632,
			"byteOffset":396108,
			"target":34962
		},
		{
			"buffer":0,
			"byteLength":1088,
			"byteOffset":397740,
			"target":34962
		},
		{
			"buffer":0,
			"byteLength":1632,
			"byteOffset":398828,
			"target":34962
		},
		{
			"buffer":0,
			"byteLength":408,
			"byteOffset":400460,
			"target":34963
		}
	],
	"samplers":[
		{
			"magFilter":9729,
			"minFilter":9987
		}
	],
	"buffers":[
		{
			"byteLength":400868,
			"uri":"Stage.bin"
		}
	]
}
