{
	"asset":{
		"generator":"Khronos glTF Blender I/O v3.5.30",
		"version":"2.0"
	},
	"scene":0,
	"scenes":[
		{
			"name":"Scene",
			"nodes":[
				0,
				1,
				2,
				3,
				4
			]
		}
	],
	"nodes":[
		{
			"mesh":0,
			"name":"S_Tunnel"
		},
		{
			"mesh":1,
			"name":"S_Pipe"
		},
		{
			"mesh":2,
			"name":"S_Grate"
		},
		{
			"mesh":3,
			"name":"S_Load"
		},
		{
			"mesh":4,
			"name":"S_Door"
		}
	],
	"materials":[
		{
			"doubleSided":true,
			"name":"ConcreteMaterial",
			"pbrMetallicRoughness":{
				"baseColorTexture":{
					"index":0
				},
				"metallicFactor":0,
				"roughnessFactor":0.5
			}
		},
		{
			"doubleSided":true,
			"name":"GrateMaterial",
			"pbrMetallicRoughness":{
				"baseColorTexture":{
					"index":1
				},
				"metallicFactor":0,
				"roughnessFactor":0.5
			}
		},
		{
			"doubleSided":true,
			"name":"DoorMaterial",
			"pbrMetallicRoughness":{
				"baseColorTexture":{
					"index":2
				},
				"metallicFactor":0,
				"roughnessFactor":0.5
			}
		}
	],
	"meshes":[
		{
			"name":"\u5186\u67f1.004",
			"primitives":[
				{
					"attributes":{
						"POSITION":0,
						"TEXCOORD_0":1,
						"NORMAL":2
					},
					"indices":3,
					"material":0
				}
			]
		},
		{
			"name":"\u5186\u67f1.006",
			"primitives":[
				{
					"attributes":{
						"POSITION":4,
						"TEXCOORD_0":5,
						"NORMAL":6
					},
					"indices":7,
					"material":0
				}
			]
		},
		{
			"name":"\u5186\u67f1.009",
			"primitives":[
				{
					"attributes":{
						"POSITION":8,
						"TEXCOORD_0":9,
						"NORMAL":10
					},
					"indices":11,
					"material":1
				}
			]
		},
		{
			"name":"\u7acb\u65b9\u4f53.011",
			"primitives":[
				{
					"attributes":{
						"POSITION":12,
						"TEXCOORD_0":13,
						"NORMAL":14
					},
					"indices":15,
					"material":0
				}
			]
		},
		{
			"name":"\u7acb\u65b9\u4f53.013",
			"primitives":[
				{
					"attributes":{
						"POSITION":16,
						"TEXCOORD_0":17,
						"NORMAL":18
					},
					"indices":19,
					"material":2
				}
			]
		}
	],
	"textures":[
		{
			"sampler":0,
			"source":0
		},
		{
			"sampler":0,
			"source":1
		},
		{
			"sampler":0,
			"source":2
		}
	],
	"images":[
		{
			"mimeType":"image/png",
			"name":"Concrete",
			"uri":"Concrete.png"
		},
		{
			"mimeType":"image/png",
			"name":"Metal",
			"uri":"Metal.png"
		},
		{
			"mimeType":"image/png",
			"name":"DoorTex",
			"uri":"DoorTex.png"
		}
	],
	"accessors":[
		{
			"bufferView":0,
			"componentType":5126,
			"count":1273,
			"max":[
				12.32236385345459,
				7.649999618530273,
				124.99993896484375
			],
			"min":[
				-12.67763614654541,
				-9.34999942779541,
				-125
			],
			"type":"VEC3"
		},
		{
			"bufferView":1,
			"componentType":5126,
			"count":1273,
			"type":"VEC2"
		},
		{
			"bufferView":2,
			"componentType":5126,
			"count":1273,
			"type":"VEC3"
		},
		{
			"bufferView":3,
			"componentType":5123,
			"count":6294,
			"type":"SCALAR"
		},
		{
			"bufferView":4,
			"componentType":5126,
			"count":3360,
			"max":[
				25.245983123779297,
				5.774999141693115,
				123.625
			],
			"min":[
				5.24598503112793,
				-5.774999141693115,
				-109.875
			],
			"type":"VEC3"
		},
		{
			"bufferView":5,
			"componentType":5126,
			"count":3360,
			"type":"VEC2"
		},
		{
			"bufferView":6,
			"componentType":5126,
			"count":3360,
			"type":"VEC3"
		},
		{
			"bufferView":7,
			"componentType":5123,
			"count":14886,
			"type":"SCALAR"
		},
		{
			"bufferView":8,
			"componentType":5126,
			"count":2920,
			"max":[
				6.3085737228393555,
				5.314716815948486,
				123.2784652709961
			],
			"min":[
				5.836153984069824,
				-5.314716815948486,
				-59.47686004638672
			],
			"type":"VEC3"
		},
		{
			"bufferView":9,
			"componentType":5126,
			"count":2920,
			"type":"VEC2"
		},
		{
			"bufferView":10,
			"componentType":5126,
			"count":2920,
			"type":"VEC3"
		},
		{
			"bufferView":11,
			"componentType":5123,
			"count":9030,
			"type":"SCALAR"
		},
		{
			"bufferView":12,
			"componentType":5126,
			"count":826,
			"max":[
				12.41618824005127,
				0.09803926944732666,
				125
			],
			"min":[
				-2.17763614654541,
				-4.901960849761963,
				-125
			],
			"type":"VEC3"
		},
		{
			"bufferView":13,
			"componentType":5126,
			"count":826,
			"type":"VEC2"
		},
		{
			"bufferView":14,
			"componentType":5126,
			"count":826,
			"type":"VEC3"
		},
		{
			"bufferView":15,
			"componentType":5123,
			"count":1920,
			"type":"SCALAR"
		},
		{
			"bufferView":16,
			"componentType":5126,
			"count":804,
			"max":[
				10.974454879760742,
				2.7309494018554688,
				36.7132453918457
			],
			"min":[
				8.34395694732666,
				0,
				-35.54121398925781
			],
			"type":"VEC3"
		},
		{
			"bufferView":17,
			"componentType":5126,
			"count":804,
			"type":"VEC2"
		},
		{
			"bufferView":18,
			"componentType":5126,
			"count":804,
			"type":"VEC3"
		},
		{
			"bufferView":19,
			"componentType":5123,
			"count":1344,
			"type":"SCALAR"
		}
	],
	"bufferViews":[
		{
			"buffer":0,
			"byteLength":15276,
			"byteOffset":0,
			"target":34962
		},
		{
			"buffer":0,
			"byteLength":10184,
			"byteOffset":15276,
			"target":34962
		},
		{
			"buffer":0,
			"byteLength":15276,
			"byteOffset":25460,
			"target":34962
		},
		{
			"buffer":0,
			"byteLength":12588,
			"byteOffset":40736,
			"target":34963
		},
		{
			"buffer":0,
			"byteLength":40320,
			"byteOffset":53324,
			"target":34962
		},
		{
			"buffer":0,
			"byteLength":26880,
			"byteOffset":93644,
			"target":34962
		},
		{
			"buffer":0,
			"byteLength":40320,
			"byteOffset":120524,
			"target":34962
		},
		{
			"buffer":0,
			"byteLength":29772,
			"byteOffset":160844,
			"target":34963
		},
		{
			"buffer":0,
			"byteLength":35040,
			"byteOffset":190616,
			"target":34962
		},
		{
			"buffer":0,
			"byteLength":23360,
			"byteOffset":225656,
			"target":34962
		},
		{
			"buffer":0,
			"byteLength":35040,
			"byteOffset":249016,
			"target":34962
		},
		{
			"buffer":0,
			"byteLength":18060,
			"byteOffset":284056,
			"target":34963
		},
		{
			"buffer":0,
			"byteLength":9912,
			"byteOffset":302116,
			"target":34962
		},
		{
			"buffer":0,
			"byteLength":6608,
			"byteOffset":312028,
			"target":34962
		},
		{
			"buffer":0,
			"byteLength":9912,
			"byteOffset":318636,
			"target":34962
		},
		{
			"buffer":0,
			"byteLength":3840,
			"byteOffset":328548,
			"target":34963
		},
		{
			"buffer":0,
			"byteLength":9648,
			"byteOffset":332388,
			"target":34962
		},
		{
			"buffer":0,
			"byteLength":6432,
			"byteOffset":342036,
			"target":34962
		},
		{
			"buffer":0,
			"byteLength":9648,
			"byteOffset":348468,
			"target":34962
		},
		{
			"buffer":0,
			"byteLength":2688,
			"byteOffset":358116,
			"target":34963
		}
	],
	"samplers":[
		{
			"magFilter":9729,
			"minFilter":9987
		}
	],
	"buffers":[
		{
			"byteLength":360804,
			"uri":"Stage.bin"
		}
	]
}
