{
	"asset":{
		"generator":"Khronos glTF Blender I/O v3.5.30",
		"version":"2.0"
	},
	"scene":0,
	"scenes":[
		{
			"name":"Scene",
			"nodes":[
				0,
				1
			]
		}
	],
	"nodes":[
		{
			"mesh":0,
			"name":"HealItem"
		},
		{
			"mesh":1,
			"name":"HealGauge"
		}
	],
	"materials":[
		{
			"doubleSided":true,
			"name":"Item",
			"pbrMetallicRoughness":{
				"baseColorTexture":{
					"index":0
				},
				"metallicFactor":0,
				"roughnessFactor":0.5
			}
		},
		{
			"doubleSided":true,
			"name":"Gauge",
			"pbrMetallicRoughness":{
				"baseColorFactor":[
					0.0029490268789231777,
					0.8000000715255737,
					0.1348501592874527,
					1
				],
				"metallicFactor":0,
				"roughnessFactor":0.5
			}
		}
	],
	"meshes":[
		{
			"name":"Cube",
			"primitives":[
				{
					"attributes":{
						"POSITION":0,
						"TEXCOORD_0":1,
						"NORMAL":2
					},
					"indices":3,
					"material":0
				}
			]
		},
		{
			"name":"Cube.001",
			"primitives":[
				{
					"attributes":{
						"POSITION":4,
						"TEXCOORD_0":5,
						"NORMAL":6
					},
					"indices":7,
					"material":1
				}
			]
		}
	],
	"textures":[
		{
			"sampler":0,
			"source":0
		}
	],
	"images":[
		{
			"mimeType":"image/png",
			"name":"ItemTex",
			"uri":"ItemTex.png"
		}
	],
	"accessors":[
		{
			"bufferView":0,
			"componentType":5126,
			"count":1036,
			"max":[
				0.12548014521598816,
				0.32999998331069946,
				0.11258333176374435
			],
			"min":[
				-0.12548021972179413,
				-4.470348358154297e-08,
				-0.11258332431316376
			],
			"type":"VEC3"
		},
		{
			"bufferView":1,
			"componentType":5126,
			"count":1036,
			"type":"VEC2"
		},
		{
			"bufferView":2,
			"componentType":5126,
			"count":1036,
			"type":"VEC3"
		},
		{
			"bufferView":3,
			"componentType":5123,
			"count":1986,
			"type":"SCALAR"
		},
		{
			"bufferView":4,
			"componentType":5126,
			"count":4,
			"max":[
				0.01470746286213398,
				0.2123647928237915,
				0.10258333384990692
			],
			"min":[
				-0.01470753364264965,
				0.04763519763946533,
				0.10258332639932632
			],
			"type":"VEC3"
		},
		{
			"bufferView":5,
			"componentType":5126,
			"count":4,
			"type":"VEC2"
		},
		{
			"bufferView":6,
			"componentType":5126,
			"count":4,
			"type":"VEC3"
		},
		{
			"bufferView":7,
			"componentType":5123,
			"count":6,
			"type":"SCALAR"
		}
	],
	"bufferViews":[
		{
			"buffer":0,
			"byteLength":12432,
			"byteOffset":0,
			"target":34962
		},
		{
			"buffer":0,
			"byteLength":8288,
			"byteOffset":12432,
			"target":34962
		},
		{
			"buffer":0,
			"byteLength":12432,
			"byteOffset":20720,
			"target":34962
		},
		{
			"buffer":0,
			"byteLength":3972,
			"byteOffset":33152,
			"target":34963
		},
		{
			"buffer":0,
			"byteLength":48,
			"byteOffset":37124,
			"target":34962
		},
		{
			"buffer":0,
			"byteLength":32,
			"byteOffset":37172,
			"target":34962
		},
		{
			"buffer":0,
			"byteLength":48,
			"byteOffset":37204,
			"target":34962
		},
		{
			"buffer":0,
			"byteLength":12,
			"byteOffset":37252,
			"target":34963
		}
	],
	"samplers":[
		{
			"magFilter":9729,
			"minFilter":9987
		}
	],
	"buffers":[
		{
			"byteLength":37264,
			"uri":"HealItem.bin"
		}
	]
}
