{
	"asset":{
		"generator":"Khronos glTF Blender I/O v3.5.30",
		"version":"2.0"
	},
	"scene":0,
	"scenes":[
		{
			"name":"Scene",
			"nodes":[
				9
			]
		}
	],
	"nodes":[
		{
			"name":"Propeller.F.R",
			"translation":[
				2.6392950047693375e-08,
				0.24749994277954102,
				-0.2474999725818634
			]
		},
		{
			"name":"Propeller.F.L",
			"translation":[
				-1.0978507880565758e-08,
				0.24749994277954102,
				0.2474999725818634
			]
		},
		{
			"name":"Propeller.B.R",
			"translation":[
				2.6392950047693375e-08,
				-0.24749994277954102,
				-0.2474999725818634
			]
		},
		{
			"name":"Propeller.B.L",
			"translation":[
				-1.0978507880565758e-08,
				-0.24749994277954102,
				0.2474999725818634
			]
		},
		{
			"children":[
				0,
				1,
				2,
				3
			],
			"name":"Root",
			"rotation":[
				0.5,
				0.5,
				0.5000000596046448,
				0.5
			]
		},
		{
			"mesh":0,
			"name":"Drone_Frame",
			"skin":0
		},
		{
			"mesh":1,
			"name":"Drone_Propeller",
			"skin":0
		},
		{
			"mesh":2,
			"name":"Drone_Tank",
			"skin":0
		},
		{
			"mesh":3,
			"name":"Drone_Tank.Gage",
			"skin":0
		},
		{
			"children":[
				5,
				6,
				7,
				8,
				4
			],
			"name":"Dorne",
			"translation":[
				-0.10208523273468018,
				0.8499675393104553,
				-1.3858838081359863
			]
		}
	],
	"animations":[
		{
			"channels":[
				{
					"sampler":0,
					"target":{
						"node":4,
						"path":"translation"
					}
				},
				{
					"sampler":1,
					"target":{
						"node":4,
						"path":"rotation"
					}
				},
				{
					"sampler":2,
					"target":{
						"node":4,
						"path":"scale"
					}
				},
				{
					"sampler":3,
					"target":{
						"node":0,
						"path":"translation"
					}
				},
				{
					"sampler":4,
					"target":{
						"node":0,
						"path":"rotation"
					}
				},
				{
					"sampler":5,
					"target":{
						"node":0,
						"path":"scale"
					}
				},
				{
					"sampler":6,
					"target":{
						"node":1,
						"path":"translation"
					}
				},
				{
					"sampler":7,
					"target":{
						"node":1,
						"path":"rotation"
					}
				},
				{
					"sampler":8,
					"target":{
						"node":1,
						"path":"scale"
					}
				},
				{
					"sampler":9,
					"target":{
						"node":2,
						"path":"translation"
					}
				},
				{
					"sampler":10,
					"target":{
						"node":2,
						"path":"rotation"
					}
				},
				{
					"sampler":11,
					"target":{
						"node":2,
						"path":"scale"
					}
				},
				{
					"sampler":12,
					"target":{
						"node":3,
						"path":"translation"
					}
				},
				{
					"sampler":13,
					"target":{
						"node":3,
						"path":"rotation"
					}
				},
				{
					"sampler":14,
					"target":{
						"node":3,
						"path":"scale"
					}
				}
			],
			"name":"00_Idle",
			"samplers":[
				{
					"input":25,
					"interpolation":"LINEAR",
					"output":26
				},
				{
					"input":27,
					"interpolation":"LINEAR",
					"output":28
				},
				{
					"input":27,
					"interpolation":"LINEAR",
					"output":29
				},
				{
					"input":27,
					"interpolation":"LINEAR",
					"output":30
				},
				{
					"input":25,
					"interpolation":"LINEAR",
					"output":31
				},
				{
					"input":27,
					"interpolation":"LINEAR",
					"output":32
				},
				{
					"input":27,
					"interpolation":"LINEAR",
					"output":33
				},
				{
					"input":25,
					"interpolation":"LINEAR",
					"output":34
				},
				{
					"input":27,
					"interpolation":"LINEAR",
					"output":35
				},
				{
					"input":27,
					"interpolation":"LINEAR",
					"output":36
				},
				{
					"input":25,
					"interpolation":"LINEAR",
					"output":37
				},
				{
					"input":27,
					"interpolation":"LINEAR",
					"output":38
				},
				{
					"input":27,
					"interpolation":"LINEAR",
					"output":39
				},
				{
					"input":25,
					"interpolation":"LINEAR",
					"output":40
				},
				{
					"input":27,
					"interpolation":"LINEAR",
					"output":41
				}
			]
		},
		{
			"channels":[
				{
					"sampler":0,
					"target":{
						"node":4,
						"path":"translation"
					}
				},
				{
					"sampler":1,
					"target":{
						"node":4,
						"path":"rotation"
					}
				},
				{
					"sampler":2,
					"target":{
						"node":4,
						"path":"scale"
					}
				},
				{
					"sampler":3,
					"target":{
						"node":0,
						"path":"translation"
					}
				},
				{
					"sampler":4,
					"target":{
						"node":0,
						"path":"rotation"
					}
				},
				{
					"sampler":5,
					"target":{
						"node":0,
						"path":"scale"
					}
				},
				{
					"sampler":6,
					"target":{
						"node":1,
						"path":"translation"
					}
				},
				{
					"sampler":7,
					"target":{
						"node":1,
						"path":"rotation"
					}
				},
				{
					"sampler":8,
					"target":{
						"node":1,
						"path":"scale"
					}
				},
				{
					"sampler":9,
					"target":{
						"node":2,
						"path":"translation"
					}
				},
				{
					"sampler":10,
					"target":{
						"node":2,
						"path":"rotation"
					}
				},
				{
					"sampler":11,
					"target":{
						"node":2,
						"path":"scale"
					}
				},
				{
					"sampler":12,
					"target":{
						"node":3,
						"path":"translation"
					}
				},
				{
					"sampler":13,
					"target":{
						"node":3,
						"path":"rotation"
					}
				},
				{
					"sampler":14,
					"target":{
						"node":3,
						"path":"scale"
					}
				},
				{
					"sampler":15,
					"target":{
						"node":9,
						"path":"translation"
					}
				},
				{
					"sampler":16,
					"target":{
						"node":9,
						"path":"rotation"
					}
				},
				{
					"sampler":17,
					"target":{
						"node":9,
						"path":"scale"
					}
				}
			],
			"name":"01_Result",
			"samplers":[
				{
					"input":42,
					"interpolation":"LINEAR",
					"output":43
				},
				{
					"input":44,
					"interpolation":"LINEAR",
					"output":45
				},
				{
					"input":42,
					"interpolation":"LINEAR",
					"output":46
				},
				{
					"input":42,
					"interpolation":"LINEAR",
					"output":47
				},
				{
					"input":44,
					"interpolation":"LINEAR",
					"output":48
				},
				{
					"input":42,
					"interpolation":"LINEAR",
					"output":49
				},
				{
					"input":42,
					"interpolation":"LINEAR",
					"output":50
				},
				{
					"input":44,
					"interpolation":"LINEAR",
					"output":51
				},
				{
					"input":42,
					"interpolation":"LINEAR",
					"output":52
				},
				{
					"input":42,
					"interpolation":"LINEAR",
					"output":53
				},
				{
					"input":44,
					"interpolation":"LINEAR",
					"output":54
				},
				{
					"input":42,
					"interpolation":"LINEAR",
					"output":55
				},
				{
					"input":42,
					"interpolation":"LINEAR",
					"output":56
				},
				{
					"input":44,
					"interpolation":"LINEAR",
					"output":57
				},
				{
					"input":42,
					"interpolation":"LINEAR",
					"output":58
				},
				{
					"input":59,
					"interpolation":"LINEAR",
					"output":60
				},
				{
					"input":61,
					"interpolation":"LINEAR",
					"output":62
				},
				{
					"input":61,
					"interpolation":"LINEAR",
					"output":63
				}
			]
		}
	],
	"materials":[
		{
			"doubleSided":true,
			"name":"Frame",
			"pbrMetallicRoughness":{
				"baseColorTexture":{
					"index":0
				},
				"metallicFactor":0,
				"roughnessFactor":0.5
			}
		},
		{
			"doubleSided":true,
			"name":"Propeller",
			"pbrMetallicRoughness":{
				"baseColorTexture":{
					"index":1
				},
				"metallicFactor":0,
				"roughnessFactor":0.5
			}
		},
		{
			"doubleSided":true,
			"name":"Tank",
			"pbrMetallicRoughness":{
				"baseColorTexture":{
					"index":2
				},
				"metallicFactor":0,
				"roughnessFactor":0.5
			}
		},
		{
			"doubleSided":true,
			"name":"Gage",
			"pbrMetallicRoughness":{
				"baseColorTexture":{
					"index":3
				},
				"metallicFactor":0,
				"roughnessFactor":0.5
			}
		}
	],
	"meshes":[
		{
			"name":"\u5186\u67f1.003",
			"primitives":[
				{
					"attributes":{
						"POSITION":0,
						"TEXCOORD_0":1,
						"NORMAL":2,
						"JOINTS_0":3,
						"WEIGHTS_0":4
					},
					"indices":5,
					"material":0
				}
			]
		},
		{
			"name":"\u5186\u67f1.005",
			"primitives":[
				{
					"attributes":{
						"POSITION":7,
						"TEXCOORD_0":8,
						"NORMAL":9,
						"JOINTS_0":10,
						"WEIGHTS_0":11
					},
					"indices":12,
					"material":1
				}
			]
		},
		{
			"name":"\u5186\u67f1.007",
			"primitives":[
				{
					"attributes":{
						"POSITION":13,
						"TEXCOORD_0":14,
						"NORMAL":15,
						"JOINTS_0":16,
						"WEIGHTS_0":17
					},
					"indices":18,
					"material":2
				}
			]
		},
		{
			"name":"\u5186\u67f1.008",
			"primitives":[
				{
					"attributes":{
						"POSITION":19,
						"TEXCOORD_0":20,
						"NORMAL":21,
						"JOINTS_0":22,
						"WEIGHTS_0":23
					},
					"indices":24,
					"material":3
				}
			]
		}
	],
	"textures":[
		{
			"sampler":0,
			"source":0
		},
		{
			"sampler":0,
			"source":1
		},
		{
			"sampler":0,
			"source":2
		},
		{
			"sampler":0,
			"source":3
		}
	],
	"images":[
		{
			"mimeType":"image/png",
			"name":"FrameTex",
			"uri":"FrameTex.png"
		},
		{
			"mimeType":"image/png",
			"name":"PropellerTex",
			"uri":"PropellerTex.png"
		},
		{
			"mimeType":"image/png",
			"name":"TankTex",
			"uri":"TankTex.png"
		},
		{
			"mimeType":"image/png",
			"name":"TankGageTex",
			"uri":"TankGageTex.png"
		}
	],
	"skins":[
		{
			"inverseBindMatrices":6,
			"joints":[
				4,
				0,
				1,
				2,
				3
			],
			"name":"Dorne"
		}
	],
	"accessors":[
		{
			"bufferView":0,
			"componentType":5126,
			"count":1036,
			"max":[
				0.3200279772281647,
				0.9489675164222717,
				-0.9637706279754639
			],
			"min":[
				-0.5241984128952026,
				0.7167115211486816,
				-1.8079969882965088
			],
			"type":"VEC3"
		},
		{
			"bufferView":1,
			"componentType":5126,
			"count":1036,
			"type":"VEC2"
		},
		{
			"bufferView":2,
			"componentType":5126,
			"count":1036,
			"type":"VEC3"
		},
		{
			"bufferView":3,
			"componentType":5121,
			"count":1036,
			"type":"VEC4"
		},
		{
			"bufferView":4,
			"componentType":5126,
			"count":1036,
			"type":"VEC4"
		},
		{
			"bufferView":5,
			"componentType":5123,
			"count":1836,
			"type":"SCALAR"
		},
		{
			"bufferView":6,
			"componentType":5126,
			"count":5,
			"type":"MAT4"
		},
		{
			"bufferView":7,
			"componentType":5126,
			"count":824,
			"max":[
				0.169775128364563,
				0.8904675245285034,
				-1.0275964736938477
			],
			"min":[
				-0.37394559383392334,
				0.8094675540924072,
				-1.744171142578125
			],
			"type":"VEC3"
		},
		{
			"bufferView":8,
			"componentType":5126,
			"count":824,
			"type":"VEC2"
		},
		{
			"bufferView":9,
			"componentType":5126,
			"count":824,
			"type":"VEC3"
		},
		{
			"bufferView":10,
			"componentType":5121,
			"count":824,
			"type":"VEC4"
		},
		{
			"bufferView":11,
			"componentType":5126,
			"count":824,
			"type":"VEC4"
		},
		{
			"bufferView":12,
			"componentType":5123,
			"count":1464,
			"type":"SCALAR"
		},
		{
			"bufferView":13,
			"componentType":5126,
			"count":424,
			"max":[
				0.08388708531856537,
				0.7734675407409668,
				-1.1999114751815796
			],
			"min":[
				-0.2880575656890869,
				0.4359675645828247,
				-1.571856141090393
			],
			"type":"VEC3"
		},
		{
			"bufferView":14,
			"componentType":5126,
			"count":424,
			"type":"VEC2"
		},
		{
			"bufferView":15,
			"componentType":5126,
			"count":424,
			"type":"VEC3"
		},
		{
			"bufferView":16,
			"componentType":5121,
			"count":424,
			"type":"VEC4"
		},
		{
			"bufferView":17,
			"componentType":5126,
			"count":424,
			"type":"VEC4"
		},
		{
			"bufferView":18,
			"componentType":5123,
			"count":732,
			"type":"SCALAR"
		},
		{
			"bufferView":19,
			"componentType":5126,
			"count":16,
			"max":[
				0.05184979736804962,
				0.6902175545692444,
				-1.231948733329773
			],
			"min":[
				-0.2560202479362488,
				0.49671757221221924,
				-1.5398188829421997
			],
			"type":"VEC3"
		},
		{
			"bufferView":20,
			"componentType":5126,
			"count":16,
			"type":"VEC2"
		},
		{
			"bufferView":21,
			"componentType":5126,
			"count":16,
			"type":"VEC3"
		},
		{
			"bufferView":22,
			"componentType":5121,
			"count":16,
			"type":"VEC4"
		},
		{
			"bufferView":23,
			"componentType":5126,
			"count":16,
			"type":"VEC4"
		},
		{
			"bufferView":24,
			"componentType":5123,
			"count":24,
			"type":"SCALAR"
		},
		{
			"bufferView":25,
			"componentType":5126,
			"count":31,
			"max":[
				0.5
			],
			"min":[
				0
			],
			"type":"SCALAR"
		},
		{
			"bufferView":26,
			"componentType":5126,
			"count":31,
			"type":"VEC3"
		},
		{
			"bufferView":27,
			"componentType":5126,
			"count":2,
			"max":[
				0.5
			],
			"min":[
				0
			],
			"type":"SCALAR"
		},
		{
			"bufferView":28,
			"componentType":5126,
			"count":2,
			"type":"VEC4"
		},
		{
			"bufferView":29,
			"componentType":5126,
			"count":2,
			"type":"VEC3"
		},
		{
			"bufferView":30,
			"componentType":5126,
			"count":2,
			"type":"VEC3"
		},
		{
			"bufferView":31,
			"componentType":5126,
			"count":31,
			"type":"VEC4"
		},
		{
			"bufferView":32,
			"componentType":5126,
			"count":2,
			"type":"VEC3"
		},
		{
			"bufferView":33,
			"componentType":5126,
			"count":2,
			"type":"VEC3"
		},
		{
			"bufferView":34,
			"componentType":5126,
			"count":31,
			"type":"VEC4"
		},
		{
			"bufferView":35,
			"componentType":5126,
			"count":2,
			"type":"VEC3"
		},
		{
			"bufferView":36,
			"componentType":5126,
			"count":2,
			"type":"VEC3"
		},
		{
			"bufferView":37,
			"componentType":5126,
			"count":31,
			"type":"VEC4"
		},
		{
			"bufferView":38,
			"componentType":5126,
			"count":2,
			"type":"VEC3"
		},
		{
			"bufferView":39,
			"componentType":5126,
			"count":2,
			"type":"VEC3"
		},
		{
			"bufferView":40,
			"componentType":5126,
			"count":31,
			"type":"VEC4"
		},
		{
			"bufferView":41,
			"componentType":5126,
			"count":2,
			"type":"VEC3"
		},
		{
			"bufferView":42,
			"componentType":5126,
			"count":2,
			"max":[
				1.6666666666666667
			],
			"min":[
				0
			],
			"type":"SCALAR"
		},
		{
			"bufferView":43,
			"componentType":5126,
			"count":2,
			"type":"VEC3"
		},
		{
			"bufferView":44,
			"componentType":5126,
			"count":101,
			"max":[
				1.6666666666666667
			],
			"min":[
				0
			],
			"type":"SCALAR"
		},
		{
			"bufferView":45,
			"componentType":5126,
			"count":101,
			"type":"VEC4"
		},
		{
			"bufferView":46,
			"componentType":5126,
			"count":2,
			"type":"VEC3"
		},
		{
			"bufferView":47,
			"componentType":5126,
			"count":2,
			"type":"VEC3"
		},
		{
			"bufferView":48,
			"componentType":5126,
			"count":101,
			"type":"VEC4"
		},
		{
			"bufferView":49,
			"componentType":5126,
			"count":2,
			"type":"VEC3"
		},
		{
			"bufferView":50,
			"componentType":5126,
			"count":2,
			"type":"VEC3"
		},
		{
			"bufferView":51,
			"componentType":5126,
			"count":101,
			"type":"VEC4"
		},
		{
			"bufferView":52,
			"componentType":5126,
			"count":2,
			"type":"VEC3"
		},
		{
			"bufferView":53,
			"componentType":5126,
			"count":2,
			"type":"VEC3"
		},
		{
			"bufferView":54,
			"componentType":5126,
			"count":101,
			"type":"VEC4"
		},
		{
			"bufferView":55,
			"componentType":5126,
			"count":2,
			"type":"VEC3"
		},
		{
			"bufferView":56,
			"componentType":5126,
			"count":2,
			"type":"VEC3"
		},
		{
			"bufferView":57,
			"componentType":5126,
			"count":101,
			"type":"VEC4"
		},
		{
			"bufferView":58,
			"componentType":5126,
			"count":2,
			"type":"VEC3"
		},
		{
			"bufferView":59,
			"componentType":5126,
			"count":100,
			"max":[
				1.6666666666666667
			],
			"min":[
				0.016666666666666666
			],
			"type":"SCALAR"
		},
		{
			"bufferView":60,
			"componentType":5126,
			"count":100,
			"type":"VEC3"
		},
		{
			"bufferView":61,
			"componentType":5126,
			"count":2,
			"max":[
				1.6666666666666667
			],
			"min":[
				0.016666666666666666
			],
			"type":"SCALAR"
		},
		{
			"bufferView":62,
			"componentType":5126,
			"count":2,
			"type":"VEC4"
		},
		{
			"bufferView":63,
			"componentType":5126,
			"count":2,
			"type":"VEC3"
		}
	],
	"bufferViews":[
		{
			"buffer":0,
			"byteLength":12432,
			"byteOffset":0,
			"target":34962
		},
		{
			"buffer":0,
			"byteLength":8288,
			"byteOffset":12432,
			"target":34962
		},
		{
			"buffer":0,
			"byteLength":12432,
			"byteOffset":20720,
			"target":34962
		},
		{
			"buffer":0,
			"byteLength":4144,
			"byteOffset":33152,
			"target":34962
		},
		{
			"buffer":0,
			"byteLength":16576,
			"byteOffset":37296,
			"target":34962
		},
		{
			"buffer":0,
			"byteLength":3672,
			"byteOffset":53872,
			"target":34963
		},
		{
			"buffer":0,
			"byteLength":320,
			"byteOffset":57544
		},
		{
			"buffer":0,
			"byteLength":9888,
			"byteOffset":57864,
			"target":34962
		},
		{
			"buffer":0,
			"byteLength":6592,
			"byteOffset":67752,
			"target":34962
		},
		{
			"buffer":0,
			"byteLength":9888,
			"byteOffset":74344,
			"target":34962
		},
		{
			"buffer":0,
			"byteLength":3296,
			"byteOffset":84232,
			"target":34962
		},
		{
			"buffer":0,
			"byteLength":13184,
			"byteOffset":87528,
			"target":34962
		},
		{
			"buffer":0,
			"byteLength":2928,
			"byteOffset":100712,
			"target":34963
		},
		{
			"buffer":0,
			"byteLength":5088,
			"byteOffset":103640,
			"target":34962
		},
		{
			"buffer":0,
			"byteLength":3392,
			"byteOffset":108728,
			"target":34962
		},
		{
			"buffer":0,
			"byteLength":5088,
			"byteOffset":112120,
			"target":34962
		},
		{
			"buffer":0,
			"byteLength":1696,
			"byteOffset":117208,
			"target":34962
		},
		{
			"buffer":0,
			"byteLength":6784,
			"byteOffset":118904,
			"target":34962
		},
		{
			"buffer":0,
			"byteLength":1464,
			"byteOffset":125688,
			"target":34963
		},
		{
			"buffer":0,
			"byteLength":192,
			"byteOffset":127152,
			"target":34962
		},
		{
			"buffer":0,
			"byteLength":128,
			"byteOffset":127344,
			"target":34962
		},
		{
			"buffer":0,
			"byteLength":192,
			"byteOffset":127472,
			"target":34962
		},
		{
			"buffer":0,
			"byteLength":64,
			"byteOffset":127664,
			"target":34962
		},
		{
			"buffer":0,
			"byteLength":256,
			"byteOffset":127728,
			"target":34962
		},
		{
			"buffer":0,
			"byteLength":48,
			"byteOffset":127984,
			"target":34963
		},
		{
			"buffer":0,
			"byteLength":124,
			"byteOffset":128032
		},
		{
			"buffer":0,
			"byteLength":372,
			"byteOffset":128156
		},
		{
			"buffer":0,
			"byteLength":8,
			"byteOffset":128528
		},
		{
			"buffer":0,
			"byteLength":32,
			"byteOffset":128536
		},
		{
			"buffer":0,
			"byteLength":24,
			"byteOffset":128568
		},
		{
			"buffer":0,
			"byteLength":24,
			"byteOffset":128592
		},
		{
			"buffer":0,
			"byteLength":496,
			"byteOffset":128616
		},
		{
			"buffer":0,
			"byteLength":24,
			"byteOffset":129112
		},
		{
			"buffer":0,
			"byteLength":24,
			"byteOffset":129136
		},
		{
			"buffer":0,
			"byteLength":496,
			"byteOffset":129160
		},
		{
			"buffer":0,
			"byteLength":24,
			"byteOffset":129656
		},
		{
			"buffer":0,
			"byteLength":24,
			"byteOffset":129680
		},
		{
			"buffer":0,
			"byteLength":496,
			"byteOffset":129704
		},
		{
			"buffer":0,
			"byteLength":24,
			"byteOffset":130200
		},
		{
			"buffer":0,
			"byteLength":24,
			"byteOffset":130224
		},
		{
			"buffer":0,
			"byteLength":496,
			"byteOffset":130248
		},
		{
			"buffer":0,
			"byteLength":24,
			"byteOffset":130744
		},
		{
			"buffer":0,
			"byteLength":8,
			"byteOffset":130768
		},
		{
			"buffer":0,
			"byteLength":24,
			"byteOffset":130776
		},
		{
			"buffer":0,
			"byteLength":404,
			"byteOffset":130800
		},
		{
			"buffer":0,
			"byteLength":1616,
			"byteOffset":131204
		},
		{
			"buffer":0,
			"byteLength":24,
			"byteOffset":132820
		},
		{
			"buffer":0,
			"byteLength":24,
			"byteOffset":132844
		},
		{
			"buffer":0,
			"byteLength":1616,
			"byteOffset":132868
		},
		{
			"buffer":0,
			"byteLength":24,
			"byteOffset":134484
		},
		{
			"buffer":0,
			"byteLength":24,
			"byteOffset":134508
		},
		{
			"buffer":0,
			"byteLength":1616,
			"byteOffset":134532
		},
		{
			"buffer":0,
			"byteLength":24,
			"byteOffset":136148
		},
		{
			"buffer":0,
			"byteLength":24,
			"byteOffset":136172
		},
		{
			"buffer":0,
			"byteLength":1616,
			"byteOffset":136196
		},
		{
			"buffer":0,
			"byteLength":24,
			"byteOffset":137812
		},
		{
			"buffer":0,
			"byteLength":24,
			"byteOffset":137836
		},
		{
			"buffer":0,
			"byteLength":1616,
			"byteOffset":137860
		},
		{
			"buffer":0,
			"byteLength":24,
			"byteOffset":139476
		},
		{
			"buffer":0,
			"byteLength":400,
			"byteOffset":139500
		},
		{
			"buffer":0,
			"byteLength":1200,
			"byteOffset":139900
		},
		{
			"buffer":0,
			"byteLength":8,
			"byteOffset":141100
		},
		{
			"buffer":0,
			"byteLength":32,
			"byteOffset":141108
		},
		{
			"buffer":0,
			"byteLength":24,
			"byteOffset":141140
		}
	],
	"samplers":[
		{
			"magFilter":9729,
			"minFilter":9987
		}
	],
	"buffers":[
		{
			"byteLength":141164,
			"uri":"Drone.bin"
		}
	]
}
